<svg version="1.1" id="Layer_1" xmlns="http://www.w3.org/2000/svg" xmlns:xlink="http://www.w3.org/1999/xlink" x="0px" y="0px"
	 width="100%" viewBox="0 0 1937 721" enable-background="new 0 0 1937 721" xml:space="preserve">
<path fill="#FFFFFF" opacity="1.000000" stroke="none" 
	d="
M1938.000000,205.999985 
	C1938.000000,377.950226 1938.000000,549.900452 1938.000000,722.000000 
	C1620.641724,722.000000 1303.283569,722.000000 985.583923,721.672363 
	C990.282776,718.725708 994.006165,715.201538 994.005737,708.980530 
	C993.997925,591.702148 994.023865,474.423798 993.874268,357.145630 
	C993.870178,353.933716 992.882507,349.942017 990.849243,347.645966 
	C980.869385,336.376099 970.970642,324.909637 959.876587,314.791901 
	C951.571960,307.218140 939.851990,308.441406 932.912354,314.734222 
	C922.957336,323.761444 913.478210,333.314545 903.825684,342.673798 
	C899.131653,347.225067 896.920898,352.631714 896.926880,359.357422 
	C897.028748,474.470032 897.055725,589.582825 896.876892,704.695312 
	C896.864746,712.521912 898.760376,718.436829 906.000000,722.000000 
	C604.333313,722.000000 302.666656,722.000000 1.000000,722.000000 
	C1.000000,701.574097 1.000000,681.249695 1.468657,660.462891 
	C36.871220,660.000488 71.805130,660.000488 107.136032,660.000488 
	C107.136032,597.399719 107.136032,535.328735 107.136032,473.270142 
	C175.939087,473.270142 244.342133,473.270142 313.144592,473.270142 
	C313.144592,535.610168 313.144592,597.681091 313.144592,659.724304 
	C348.616302,659.724304 383.687134,659.724304 418.725128,659.724304 
	C418.725128,507.714020 418.725128,355.980042 418.725128,204.278564 
	C383.378723,204.278564 348.307922,204.278564 312.838135,204.278564 
	C312.838135,263.960449 312.838135,323.364807 312.838135,382.716431 
	C244.034027,382.716431 175.630936,382.716431 106.828140,382.716431 
	C106.828140,323.029541 106.828140,263.625183 106.828140,204.000000 
	C71.285316,204.000000 36.142658,204.000000 1.000000,204.000000 
	C1.000000,136.369324 1.000000,68.738663 1.000000,1.000000 
	C199.691559,1.000000 398.383118,1.000000 597.541260,1.468380 
	C597.715271,17.950268 598.930725,33.820259 603.034912,49.350418 
	C607.787659,67.334579 615.800964,83.436569 629.213562,96.811539 
	C702.265198,169.658112 775.251099,242.571457 847.951050,315.768311 
	C854.538147,322.400482 868.483398,322.352386 874.588379,316.047241 
	C887.570801,302.638947 900.972351,289.637543 914.095276,276.363678 
	C920.618713,269.765259 920.650818,257.922852 914.198914,251.499847 
	C883.403870,220.842621 853.001892,189.790939 822.387146,158.951950 
	C800.665161,137.070770 778.901611,115.229759 757.020142,93.508263 
	C734.468506,71.121475 711.918335,48.728134 689.039001,26.678566 
	C677.001343,15.077511 661.816772,9.046311 645.835327,5.044972 
	C639.295898,3.407658 632.616028,2.331461 626.000000,1.000003 
	C838.691589,1.000000 1051.383179,1.000000 1264.347900,1.374376 
	C1259.775391,2.496143 1254.904541,3.109060 1250.088623,4.014238 
	C1229.387573,7.905066 1210.960327,16.568007 1196.020386,31.539284 
	C1123.185913,104.526588 1050.597778,177.760132 977.602356,250.585724 
	C970.392029,257.779358 970.636719,270.645081 977.630249,277.305939 
	C990.659912,289.715698 1003.427002,302.427856 1015.791626,315.498260 
	C1022.244141,322.319153 1036.396729,322.483002 1043.184448,315.645630 
	C1114.924927,243.379883 1186.898315,171.343582 1259.134155,99.572754 
	C1274.689819,84.117325 1284.379395,65.959984 1288.889404,44.876118 
	C1290.662720,36.585884 1291.459106,28.043243 1292.106567,19.570168 
	C1292.576782,13.418758 1292.070679,7.192747 1292.000000,1.000000 
	C1507.225464,1.000000 1722.450806,1.000000 1938.000000,1.000000 
	C1938.000000,68.357903 1938.000000,135.716324 1937.531372,203.537369 
	C1904.231201,204.000000 1871.399414,203.953064 1838.568604,204.106415 
	C1836.398315,204.116562 1833.204956,205.011673 1832.228760,206.579422 
	C1823.050537,221.318314 1814.241089,236.287033 1805.346313,251.201935 
	C1795.050537,268.466400 1784.867188,285.798615 1774.469971,303.001617 
	C1760.405518,326.272461 1746.153442,349.429749 1732.043579,372.673218 
	C1725.543335,383.380829 1719.189331,394.177246 1712.706909,405.037689 
	C1706.208252,394.195007 1699.854248,383.613251 1693.519409,373.020233 
	C1683.118286,355.628082 1672.757446,338.211884 1662.328735,320.836487 
	C1649.747437,299.874725 1637.145386,278.925201 1624.490967,258.007660 
	C1614.166870,240.942490 1603.806274,223.898605 1593.281006,206.957642 
	C1592.396851,205.534515 1590.141235,204.129990 1588.516724,204.122818 
	C1552.188599,203.962662 1515.859741,204.000046 1479.209351,204.000046 
	C1480.000854,205.759277 1480.558594,207.436096 1481.449829,208.911423 
	C1489.933472,222.956924 1498.535034,236.931442 1506.984253,250.997498 
	C1522.137817,276.224518 1537.160034,301.530334 1552.328857,326.748230 
	C1568.829712,354.181061 1585.437866,381.549316 1601.993286,408.949341 
	C1617.547974,434.693146 1633.235962,460.358368 1648.521484,486.261108 
	C1651.440063,491.207184 1655.217651,495.704315 1655.174561,502.481750 
	C1654.853271,553.143555 1655.000000,603.808350 1655.000000,654.472168 
	C1655.000000,656.239380 1655.000000,658.006531 1655.000000,659.718872 
	C1690.963989,659.718872 1726.367920,659.718872 1762.001709,659.718872 
	C1762.001709,657.629639 1762.001709,655.819641 1762.001709,654.009644 
	C1762.001709,603.345825 1761.989502,552.682007 1762.045532,502.018219 
	C1762.047852,499.957916 1762.140991,497.573181 1763.129395,495.890167 
	C1770.786865,482.851257 1778.673706,469.946869 1786.492432,457.002716 
	C1801.298218,432.491302 1816.133545,407.997742 1830.904053,383.465118 
	C1842.847290,363.628143 1854.694702,343.733368 1866.619141,323.885010 
	C1880.202759,301.274994 1893.786987,278.665222 1907.442505,256.098511 
	C1917.569214,239.363281 1927.809937,222.696991 1938.000000,205.999985 
M1339.500000,204.000000 
	C1296.512451,204.000000 1253.524902,203.982880 1210.537476,204.059235 
	C1208.716064,204.062469 1206.427246,204.391937 1205.156860,205.493164 
	C1199.640381,210.275299 1194.292114,215.270767 1189.116089,220.423126 
	C1167.389038,242.050369 1145.698242,263.714905 1124.162842,285.532043 
	C1122.450195,287.267181 1121.131104,290.271271 1121.128174,292.687378 
	C1120.982178,413.484070 1121.000000,534.281006 1121.000000,655.077881 
	C1121.000000,656.667480 1121.000000,658.257080 1121.000000,660.000000 
	C1123.452271,660.000000 1125.270996,660.000000 1127.089844,660.000000 
	C1203.900024,660.000000 1280.710327,660.086975 1357.520020,659.910767 
	C1369.688599,659.882812 1381.920044,659.240967 1394.005005,657.857178 
	C1409.125366,656.125610 1424.298828,654.118774 1439.134399,650.815491 
	C1461.479736,645.840149 1482.402466,636.894958 1500.151978,622.160767 
	C1523.039551,603.161316 1536.543091,578.491882 1538.784180,548.785767 
	C1540.713257,523.212708 1538.478149,497.977173 1525.039673,474.991150 
	C1517.185425,461.556305 1507.276123,450.106110 1494.659058,440.935150 
	C1483.522827,432.840546 1471.124756,427.274261 1457.879150,422.274445 
	C1473.175293,413.453064 1486.388916,403.151764 1496.498047,389.099091 
	C1507.493042,373.814850 1513.336304,356.669098 1515.928711,338.258240 
	C1516.260986,335.897766 1516.300049,333.063110 1515.295044,331.031982 
	C1512.737061,325.862305 1509.544189,321.003143 1506.546265,316.055542 
	C1488.376953,286.069427 1470.232300,256.068115 1451.928711,226.164185 
	C1450.538818,223.893280 1448.305542,221.555298 1445.918335,220.567566 
	C1420.029297,209.855255 1392.750732,205.627869 1364.988647,204.070328 
	C1356.850098,203.613739 1348.664185,204.000031 1339.500000,204.000000 
M790.504089,375.996643 
	C798.164795,363.338928 805.838074,350.688782 813.473633,338.015930 
	C814.748474,335.899994 815.778320,334.124298 813.254333,331.629517 
	C792.098694,310.717834 771.121704,289.625305 750.044800,268.541138 
	C722.289734,314.544952 695.010681,359.759766 667.626221,405.149261 
	C666.749695,403.471497 666.145203,402.151733 665.401672,400.915619 
	C652.804016,379.970612 640.158264,359.054474 627.586548,338.093964 
	C615.179810,317.408661 602.884277,296.656555 590.466553,275.977936 
	C576.806519,253.230515 562.997742,230.571991 549.439026,207.764618 
	C547.776306,204.967636 546.048340,203.928436 542.871277,203.940308 
	C515.212097,204.043762 487.552277,203.996155 459.892639,204.012589 
	C458.631714,204.013351 457.370941,204.197220 455.999908,204.304443 
	C455.999908,216.140610 455.935211,227.627228 456.071625,239.111481 
	C456.091461,240.780807 456.777771,242.616669 457.655579,244.074493 
	C466.948242,259.507294 476.410492,274.838043 485.690948,290.278137 
	C497.038147,309.156799 508.191620,328.151978 519.546875,347.025726 
	C533.639893,370.449982 547.869263,393.792206 562.011047,417.187195 
	C575.905518,440.173126 589.695129,463.222839 603.680298,486.153412 
	C607.898987,493.070526 610.291199,499.966095 610.214355,508.465942 
	C609.774475,557.116272 610.000549,605.772583 610.000549,654.426819 
	C610.000549,656.198059 610.000549,657.969299 610.000549,659.742493 
	C645.926636,659.742493 681.325500,659.742493 717.001770,659.742493 
	C717.001770,657.689392 717.001770,655.883362 717.001770,654.077393 
	C717.001770,603.257019 716.991882,552.436646 717.044617,501.616302 
	C717.046387,499.909180 717.262451,497.959381 718.090393,496.537018 
	C722.217163,489.447906 726.637451,482.530579 730.854065,475.492645 
	C750.599670,442.535767 770.312317,409.559082 790.504089,375.996643 
z"/>
<path fill="#030303" opacity="1.000000" stroke="none" 
	d="
M1.000000,204.468658 
	C36.142658,204.000000 71.285316,204.000000 106.828140,204.000000 
	C106.828140,263.625183 106.828140,323.029541 106.828140,382.716431 
	C175.630936,382.716431 244.034027,382.716431 312.838135,382.716431 
	C312.838135,323.364807 312.838135,263.960449 312.838135,204.278564 
	C348.307922,204.278564 383.378723,204.278564 418.725128,204.278564 
	C418.725128,355.980042 418.725128,507.714020 418.725128,659.724304 
	C383.687134,659.724304 348.616302,659.724304 313.144592,659.724304 
	C313.144592,597.681091 313.144592,535.610168 313.144592,473.270142 
	C244.342133,473.270142 175.939087,473.270142 107.136032,473.270142 
	C107.136032,535.328735 107.136032,597.399719 107.136032,660.000488 
	C71.805130,660.000488 36.871220,660.000488 1.468657,660.000244 
	C1.000000,508.312439 1.000000,356.624878 1.000000,204.468658 
z"/>
<path fill="#030303" opacity="1.000000" stroke="none" 
	d="
M1938.000000,205.666656 
	C1927.809937,222.696991 1917.569214,239.363281 1907.442505,256.098511 
	C1893.786987,278.665222 1880.202759,301.274994 1866.619141,323.885010 
	C1854.694702,343.733368 1842.847290,363.628143 1830.904053,383.465118 
	C1816.133545,407.997742 1801.298218,432.491302 1786.492432,457.002716 
	C1778.673706,469.946869 1770.786865,482.851257 1763.129395,495.890167 
	C1762.140991,497.573181 1762.047852,499.957916 1762.045532,502.018219 
	C1761.989502,552.682007 1762.001709,603.345825 1762.001709,654.009644 
	C1762.001709,655.819641 1762.001709,657.629639 1762.001709,659.718872 
	C1726.367920,659.718872 1690.963989,659.718872 1655.000000,659.718872 
	C1655.000000,658.006531 1655.000000,656.239380 1655.000000,654.472168 
	C1655.000000,603.808350 1654.853271,553.143555 1655.174561,502.481750 
	C1655.217651,495.704315 1651.440063,491.207184 1648.521484,486.261108 
	C1633.235962,460.358368 1617.547974,434.693146 1601.993286,408.949341 
	C1585.437866,381.549316 1568.829712,354.181061 1552.328857,326.748230 
	C1537.160034,301.530334 1522.137817,276.224518 1506.984253,250.997498 
	C1498.535034,236.931442 1489.933472,222.956924 1481.449829,208.911423 
	C1480.558594,207.436096 1480.000854,205.759277 1479.209351,204.000046 
	C1515.859741,204.000046 1552.188599,203.962662 1588.516724,204.122818 
	C1590.141235,204.129990 1592.396851,205.534515 1593.281006,206.957642 
	C1603.806274,223.898605 1614.166870,240.942490 1624.490967,258.007660 
	C1637.145386,278.925201 1649.747437,299.874725 1662.328735,320.836487 
	C1672.757446,338.211884 1683.118286,355.628082 1693.519409,373.020233 
	C1699.854248,383.613251 1706.208252,394.195007 1712.706909,405.037689 
	C1719.189331,394.177246 1725.543335,383.380829 1732.043579,372.673218 
	C1746.153442,349.429749 1760.405518,326.272461 1774.469971,303.001617 
	C1784.867188,285.798615 1795.050537,268.466400 1805.346313,251.201935 
	C1814.241089,236.287033 1823.050537,221.318314 1832.228760,206.579422 
	C1833.204956,205.011673 1836.398315,204.116562 1838.568604,204.106415 
	C1871.399414,203.953064 1904.231201,204.000000 1937.531372,204.000000 
	C1938.000000,204.444443 1938.000000,204.888901 1938.000000,205.666656 
z"/>
<path fill="#F6AF09" opacity="1.000000" stroke="none" 
	d="
M906.468628,722.000000 
	C898.760376,718.436829 896.864746,712.521912 896.876892,704.695312 
	C897.055725,589.582825 897.028748,474.470032 896.926880,359.357422 
	C896.920898,352.631714 899.131653,347.225067 903.825684,342.673798 
	C913.478210,333.314545 922.957336,323.761444 932.912354,314.734222 
	C939.851990,308.441406 951.571960,307.218140 959.876587,314.791901 
	C970.970642,324.909637 980.869385,336.376099 990.849243,347.645966 
	C992.882507,349.942017 993.870178,353.933716 993.874268,357.145630 
	C994.023865,474.423798 993.997925,591.702148 994.005737,708.980530 
	C994.006165,715.201538 990.282776,718.725708 985.121277,721.672363 
	C958.979126,722.000000 932.958191,722.000000 906.468628,722.000000 
z"/>
<path fill="#F6AF09" opacity="1.000000" stroke="none" 
	d="
M1291.531250,1.000000 
	C1292.070679,7.192747 1292.576782,13.418758 1292.106567,19.570168 
	C1291.459106,28.043243 1290.662720,36.585884 1288.889404,44.876118 
	C1284.379395,65.959984 1274.689819,84.117325 1259.134155,99.572754 
	C1186.898315,171.343582 1114.924927,243.379883 1043.184448,315.645630 
	C1036.396729,322.483002 1022.244141,322.319153 1015.791626,315.498260 
	C1003.427002,302.427856 990.659912,289.715698 977.630249,277.305939 
	C970.636719,270.645081 970.392029,257.779358 977.602356,250.585724 
	C1050.597778,177.760132 1123.185913,104.526588 1196.020386,31.539284 
	C1210.960327,16.568007 1229.387573,7.905066 1250.088623,4.014238 
	C1254.904541,3.109060 1259.775391,2.496143 1264.810547,1.374376 
	C1273.687622,1.000000 1282.375122,1.000000 1291.531250,1.000000 
z"/>
<path fill="#F6AF09" opacity="1.000000" stroke="none" 
	d="
M625.531372,1.000003 
	C632.616028,2.331461 639.295898,3.407658 645.835327,5.044972 
	C661.816772,9.046311 677.001343,15.077511 689.039001,26.678566 
	C711.918335,48.728134 734.468506,71.121475 757.020142,93.508263 
	C778.901611,115.229759 800.665161,137.070770 822.387146,158.951950 
	C853.001892,189.790939 883.403870,220.842621 914.198914,251.499847 
	C920.650818,257.922852 920.618713,269.765259 914.095276,276.363678 
	C900.972351,289.637543 887.570801,302.638947 874.588379,316.047241 
	C868.483398,322.352386 854.538147,322.400482 847.951050,315.768311 
	C775.251099,242.571457 702.265198,169.658112 629.213562,96.811539 
	C615.800964,83.436569 607.787659,67.334579 603.034912,49.350418 
	C598.930725,33.820259 597.715271,17.950268 598.003906,1.468380 
	C607.020874,1.000000 616.041809,1.000000 625.531372,1.000003 
z"/>
<path fill="#030303" opacity="1.000000" stroke="none" 
	d="
M1340.000000,204.000000 
	C1348.664185,204.000031 1356.850098,203.613739 1364.988647,204.070328 
	C1392.750732,205.627869 1420.029297,209.855255 1445.918335,220.567566 
	C1448.305542,221.555298 1450.538818,223.893280 1451.928711,226.164185 
	C1470.232300,256.068115 1488.376953,286.069427 1506.546265,316.055542 
	C1509.544189,321.003143 1512.737061,325.862305 1515.295044,331.031982 
	C1516.300049,333.063110 1516.260986,335.897766 1515.928711,338.258240 
	C1513.336304,356.669098 1507.493042,373.814850 1496.498047,389.099091 
	C1486.388916,403.151764 1473.175293,413.453064 1457.879150,422.274445 
	C1471.124756,427.274261 1483.522827,432.840546 1494.659058,440.935150 
	C1507.276123,450.106110 1517.185425,461.556305 1525.039673,474.991150 
	C1538.478149,497.977173 1540.713257,523.212708 1538.784180,548.785767 
	C1536.543091,578.491882 1523.039551,603.161316 1500.151978,622.160767 
	C1482.402466,636.894958 1461.479736,645.840149 1439.134399,650.815491 
	C1424.298828,654.118774 1409.125366,656.125610 1394.005005,657.857178 
	C1381.920044,659.240967 1369.688599,659.882812 1357.520020,659.910767 
	C1280.710327,660.086975 1203.900024,660.000000 1127.089844,660.000000 
	C1125.270996,660.000000 1123.452271,660.000000 1121.000000,660.000000 
	C1121.000000,658.257080 1121.000000,656.667480 1121.000000,655.077881 
	C1121.000000,534.281006 1120.982178,413.484070 1121.128174,292.687378 
	C1121.131104,290.271271 1122.450195,287.267181 1124.162842,285.532043 
	C1145.698242,263.714905 1167.389038,242.050369 1189.116089,220.423126 
	C1194.292114,215.270767 1199.640381,210.275299 1205.156860,205.493164 
	C1206.427246,204.391937 1208.716064,204.062469 1210.537476,204.059235 
	C1253.524902,203.982880 1296.512451,204.000000 1340.000000,204.000000 
M1227.001709,550.500000 
	C1227.001709,560.260803 1227.001709,570.021606 1227.001709,580.000000 
	C1229.372681,580.000000 1231.183960,580.012268 1232.994873,579.998291 
	C1275.888184,579.667236 1318.787720,579.643555 1361.670410,578.782349 
	C1372.411743,578.566528 1383.272461,576.364136 1393.763672,573.791504 
	C1404.900513,571.060486 1414.980103,565.583923 1421.953857,555.979980 
	C1430.637695,544.021057 1433.127319,530.664307 1431.126221,516.001648 
	C1429.127930,501.360382 1422.330322,490.114227 1410.145386,482.026367 
	C1394.155273,471.412689 1375.798706,468.536743 1357.384155,468.224518 
	C1315.421509,467.512939 1273.438599,467.997253 1231.463867,468.009369 
	C1230.031982,468.009796 1228.599976,468.157440 1227.001709,468.245636 
	C1227.001709,495.569031 1227.001709,522.534485 1227.001709,550.500000 
M1255.500000,284.000549 
	C1246.072998,284.000549 1236.645996,284.000549 1227.264160,284.000549 
	C1227.264160,319.622742 1227.264160,354.677521 1227.264160,390.001190 
	C1229.161255,390.001190 1230.798462,390.001190 1232.435669,390.001160 
	C1268.244385,390.000763 1304.059448,390.378540 1339.857788,389.769501 
	C1350.593140,389.586884 1361.616455,387.791779 1371.928711,384.763184 
	C1402.641968,375.743011 1413.030273,354.101868 1408.787354,326.395844 
	C1406.178711,309.361359 1394.324219,298.675568 1379.129761,292.156860 
	C1364.655640,285.947144 1349.146484,284.039368 1333.447021,284.011932 
	C1307.797974,283.967163 1282.149048,284.000305 1255.500000,284.000549 
z"/>
<path fill="#030303" opacity="1.000000" stroke="none" 
	d="
M790.270386,376.293091 
	C770.312317,409.559082 750.599670,442.535767 730.854065,475.492645 
	C726.637451,482.530579 722.217163,489.447906 718.090393,496.537018 
	C717.262451,497.959381 717.046387,499.909180 717.044617,501.616302 
	C716.991882,552.436646 717.001770,603.257019 717.001770,654.077393 
	C717.001770,655.883362 717.001770,657.689392 717.001770,659.742493 
	C681.325500,659.742493 645.926636,659.742493 610.000549,659.742493 
	C610.000549,657.969299 610.000549,656.198059 610.000549,654.426819 
	C610.000549,605.772583 609.774475,557.116272 610.214355,508.465942 
	C610.291199,499.966095 607.898987,493.070526 603.680298,486.153412 
	C589.695129,463.222839 575.905518,440.173126 562.011047,417.187195 
	C547.869263,393.792206 533.639893,370.449982 519.546875,347.025726 
	C508.191620,328.151978 497.038147,309.156799 485.690948,290.278137 
	C476.410492,274.838043 466.948242,259.507294 457.655579,244.074493 
	C456.777771,242.616669 456.091461,240.780807 456.071625,239.111481 
	C455.935211,227.627228 455.999908,216.140610 455.999908,204.304443 
	C457.370941,204.197220 458.631714,204.013351 459.892639,204.012589 
	C487.552277,203.996155 515.212097,204.043762 542.871277,203.940308 
	C546.048340,203.928436 547.776306,204.967636 549.439026,207.764618 
	C562.997742,230.571991 576.806519,253.230515 590.466553,275.977936 
	C602.884277,296.656555 615.179810,317.408661 627.586548,338.093964 
	C640.158264,359.054474 652.804016,379.970612 665.401672,400.915619 
	C666.145203,402.151733 666.749695,403.471497 667.626221,405.149261 
	C695.010681,359.759766 722.289734,314.544952 750.044800,268.541138 
	C771.121704,289.625305 792.098694,310.717834 813.254333,331.629517 
	C815.778320,334.124298 814.748474,335.899994 813.473633,338.015930 
	C805.838074,350.688782 798.164795,363.338928 790.270386,376.293091 
z"/>
<path fill="#FFFFFF" opacity="1.000000" stroke="none" 
	d="
M1227.001709,550.000000 
	C1227.001709,522.534485 1227.001709,495.569031 1227.001709,468.245636 
	C1228.599976,468.157440 1230.031982,468.009796 1231.463867,468.009369 
	C1273.438599,467.997253 1315.421509,467.512939 1357.384155,468.224518 
	C1375.798706,468.536743 1394.155273,471.412689 1410.145386,482.026367 
	C1422.330322,490.114227 1429.127930,501.360382 1431.126221,516.001648 
	C1433.127319,530.664307 1430.637695,544.021057 1421.953857,555.979980 
	C1414.980103,565.583923 1404.900513,571.060486 1393.763672,573.791504 
	C1383.272461,576.364136 1372.411743,578.566528 1361.670410,578.782349 
	C1318.787720,579.643555 1275.888184,579.667236 1232.994873,579.998291 
	C1231.183960,580.012268 1229.372681,580.000000 1227.001709,580.000000 
	C1227.001709,570.021606 1227.001709,560.260803 1227.001709,550.000000 
z"/>
<path fill="#FFFFFF" opacity="1.000000" stroke="none" 
	d="
M1256.000000,284.000549 
	C1282.149048,284.000305 1307.797974,283.967163 1333.447021,284.011932 
	C1349.146484,284.039368 1364.655640,285.947144 1379.129761,292.156860 
	C1394.324219,298.675568 1406.178711,309.361359 1408.787354,326.395844 
	C1413.030273,354.101868 1402.641968,375.743011 1371.928711,384.763184 
	C1361.616455,387.791779 1350.593140,389.586884 1339.857788,389.769501 
	C1304.059448,390.378540 1268.244385,390.000763 1232.435669,390.001160 
	C1230.798462,390.001190 1229.161255,390.001190 1227.264160,390.001190 
	C1227.264160,354.677521 1227.264160,319.622742 1227.264160,284.000549 
	C1236.645996,284.000549 1246.072998,284.000549 1256.000000,284.000549 
z"/>
</svg>